:SAMPLES-PER-SECOND 30
:FULLY-SPECIFIED
:DEGREES
700
root  4.3656 34.6967 1.12437 -115.807 -76.6456 116.597
RightUpLeg  -29.1956 -14.572 -37.4054
RightLeg  31.1314 5.75457 3.50825
RightFoot  2.55683 -3.56062 28.7758
RightToes  -2.32832e-010 0 -3.6325e-017
Spine  21.2727 2.87668 -1.49081
Spine1  -4.22626 5.58461 -19.3369
HEad  -32.6322 -7.8383 -0.664897
LeftShoulder1  0.704656 0.163185 -14.1535
LeftArm  -11.8633 33.5666 -43.0561
LeftForeArm  141.501 -74.7487 -139.762
LeftHand  -0.485031 -2.28456 7.54877
RightShoulder  0.644933 -0.251235 12.9326
RightArm  -11.0527 -10.57 55.8861
RightForeArm  89.8452 80.0171 71.2258
RightHand  -0.323353 -3.07617 -15.7618
LeftUpLeg  -12.9434 14.4127 13.3348
LeftLeg  34.8739 -0.577457 -0.0525592
LeftFoot  -14.8216 -0.90529 -31.8996
LeftToes  2.2737e-010 4.38529e-011 2.18788e-011
701
root  4.23537 34.8279 0.0250367 -134.021 -83.0295 135.476
RightUpLeg  -28.9481 -14.9146 -29.3949
RightLeg  34.04 3.87058 2.57204
RightFoot  0.500188 -2.87385 27.2662
RightToes  -2.32832e-010 0 -3.6325e-017
Spine  20.491 2.36622 -3.82809
Spine1  -5.39667 3.27091 -9.67392
HEad  -30.3476 -4.22278 0.576147
LeftShoulder1  0.718055 -0.062051 -13.1088
LeftArm  -7.49468 27.7068 -46.9439
LeftForeArm  161.084 -67.4058 -155.716
LeftHand  -0.240276 -2.28168 3.81752
RightShoulder  0.697439 -0.122836 13.8011
RightArm  -6.91549 -13.3501 56.6807
RightForeArm  41.8334 68.1883 23.6606
RightHand  -0.398358 -2.81237 -17.6885
LeftUpLeg  -13.2847 12.5583 21.5556
LeftLeg  32.6747 -1.16522 -0.438817
LeftFoot  -13.1027 -0.443332 -32.9262
LeftToes  2.2737e-010 4.38529e-011 2.18788e-011
702
root  4.17621 34.9023 -0.924206 10.486 -89.1372 -9.08008
RightUpLeg  -27.2235 -16.2178 -20.0117
RightLeg  35.0161 2.45319 1.60306
RightFoot  -0.524041 -2.52919 26.2504
RightToes  -2.32832e-010 0 -3.6325e-017
Spine  21.191 1.96075 -4.37459
Spine1  -7.1248 1.31515 1.7585
HEad  -27.337 -1.38536 0.455645
LeftShoulder1  0.80437 -0.72584 -11.8948
LeftArm  1.54104 18.9819 -52.763
LeftForeArm  173.274 -63.6166 -160.578
LeftHand  0.0538629 -2.59987 -0.554217
RightShoulder  0.711335 -0.109092 14.1566
RightArm  -2.44189 -15.6 55.698
RightForeArm  31.0964 54.4252 12.8683
RightHand  -0.302077 -3.4909 -17.876
LeftUpLeg  -14.2392 11.1219 31.3874
LeftLeg  31.2332 -2.58269 -1.33643
LeftFoot  -11.5387 0.00919823 -32.7581
LeftToes  2.2737e-010 4.38529e-011 2.18788e-011
703
root  4.17746 34.9468 -1.63307 78.3375 -79.6783 -77.9911
RightUpLeg  -23.8001 -18.8645 -11.5694
RightLeg  34.1966 1.89658 1.13467
RightFoot  -0.936966 -2.43084 26.1971
RightToes  -2.32832e-010 0 -3.6325e-017
Spine  22.974 1.37067 -4.27633
Spine1  -8.23369 -0.604463 13.492
HEad  -25.1511 1.10987 -0.368991
LeftShoulder1  0.883954 -1.61423 -9.95775
LeftArm  11.9305 8.75039 -60.3218
LeftForeArm  -178.102 -64.3029 -160.768
LeftHand  0.319734 -3.50403 -3.91211
RightShoulder  0.818112 0.312493 14.6639
RightArm  2.8008 -16.793 52.6399
RightForeArm  27.1607 42.7705 8.45723
RightHand  -0.214371 -4.00141 -17.0618
LeftUpLeg  -15.5039 8.77355 40.6148
LeftLeg  29.8674 -3.80464 -2.01951
LeftFoot  -9.90798 0.469734 -32.0651
LeftToes  2.2737e-010 4.38529e-011 2.18788e-011
704
root  4.17112 34.9865 -2.0177 63.7388 -73.948 -64.5372
RightUpLeg  -20.4598 -21.9787 -6.84463
RightLeg  32.888 1.89882 1.07546
RightFoot  -1.31004 -2.38092 26.5736
RightToes  -2.32832e-010 0 -3.6325e-017
Spine  23.915 0.74558 -5.63041
Spine1  -6.84172 -2.89748 23.2796
HEad  -25.2831 3.49617 -0.846342
LeftShoulder1  0.840211 -2.09532 -7.39234
LeftArm  20.1746 -1.71789 -67.5343
LeftForeArm  -173.58 -66.892 -158.931
LeftHand  0.399538 -4.49151 -4.43162
RightShoulder  1.00904 0.972415 15.8655
RightArm  8.87119 -16.0017 48.6339
RightForeArm  20.7784 32.9203 5.98821
RightHand  -0.143758 -4.48158 -17.0181
LeftUpLeg  -16.9267 5.57432 46.0519
LeftLeg  28.5299 -3.94854 -1.98843
LeftFoot  -8.53495 0.847891 -31.7507
LeftToes  2.2737e-010 4.38529e-011 2.18788e-011
705
root  4.14139 35.008 -1.99851 59.634 -72.3871 -60.5371
RightUpLeg  -19.2664 -23.0761 -6.39873
RightLeg  32.264 1.47503 0.757773
RightFoot  -1.69196 -2.326 26.9455
RightToes  -2.32832e-010 0 -3.6325e-017
Spine  23.1363 0.214938 -7.78808
Spine1  -3.9889 -5.07469 28.0318
HEad  -26.8722 5.43082 -0.816348
LeftShoulder1  0.760538 -2.0574 -5.92645
LeftArm  24.2364 -9.66325 -70.8742
LeftForeArm  -172.407 -68.2683 -157.648
LeftHand  0.202224 -4.67162 -2.03583
RightShoulder  1.15786 1.36906 17.222
RightArm  13.0807 -14.5618 46.096
RightForeArm  10.6734 24.5362 5.24651
RightHand  0.0446076 -5.74459 -18.2091
LeftUpLeg  -18.13 3.90341 46.6951
LeftLeg  28.4079 -3.72019 -1.84233
LeftFoot  -8.25587 0.929965 -31.9348
LeftToes  2.2737e-010 4.38529e-011 2.18788e-011
706
root  4.14595 34.9279 -1.60855 59.1311 -74.8333 -59.3488
RightUpLeg  -20.5266 -20.9384 -9.17234
RightLeg  32.8913 0.388878 0.0186507
RightFoot  -1.81567 -2.3398 27.4314
RightToes  -2.32832e-010 0 -3.6325e-017
Spine  22.055 -0.224192 -8.61404
Spine1  -2.7792 -5.61099 26.094
HEad  -27.5347 6.263 -0.913018
LeftShoulder1  0.832727 -2.11396 -7.19101
LeftArm  23.5385 -12.8747 -68.8049
LeftForeArm  -174.019 -67.613 -158.148
LeftHand  -0.12786 -3.86233 1.88974
RightShoulder  1.11744 1.20656 17.1544
RightArm  6.85984 -15.5138 46.4234
RightForeArm  8.77536 17.4008 7.86152
RightHand  0.241514 -6.8977 -19.5931
LeftUpLeg  -18.6622 5.32767 43.7543
LeftLeg  30.4057 -4.18835 -2.31866
LeftFoot  -9.48014 0.591668 -32.1611
LeftToes  2.2737e-010 4.38529e-011 2.18788e-011
707
root  4.21985 34.6881 -1.02137 56.7543 -80.132 -56.5745
RightUpLeg  -23.0613 -17.1267 -14.7274
RightLeg  34.9293 -0.333061 -0.500282
RightFoot  -1.8198 -2.40123 28.1419
RightToes  -2.32832e-010 0 -3.6325e-017
Spine  22.4712 -0.453185 -8.30417
Spine1  -4.78598 -4.35189 18.7275
HEad  -26.3015 5.93018 -1.09543
LeftShoulder1  1.03686 -2.37793 -10.3435
LeftArm  19.7075 -11.8432 -63.3058
LeftForeArm  -177.448 -65.6254 -159.712
LeftHand  -0.423796 -2.70785 6.28626
RightShoulder  0.952802 0.773126 15.5845
RightArm  -6.37724 -20.0586 48.572
RightForeArm  16.1728 12.3018 10.8112
RightHand  0.254198 -6.99018 -19.299
LeftUpLeg  -18.3894 8.53691 38.3585
LeftLeg  33.8935 -5.05221 -3.29089
LeftFoot  -11.6622 -0.0235858 -32.2588
LeftToes  2.2737e-010 4.38529e-011 2.18788e-011
708
root  4.30795 34.3891 -0.393842 61.1844 -87.4059 -60.892
RightUpLeg  -25.8251 -13.9593 -22.7863
RightLeg  37.2655 -0.150539 -0.380737
RightFoot  -1.78772 -2.47997 28.9384
RightToes  -2.32832e-010 0 -3.6325e-017
Spine  23.4828 -0.448504 -9.23954
Spine1  -7.54248 -3.1041 9.56079
HEad  -24.9892 5.03276 -0.722606
LeftShoulder1  1.16545 -2.26646 -13.2094
LeftArm  15.0253 -8.8666 -57.4888
LeftForeArm  -179.946 -62.8601 -161.736
LeftHand  -0.688741 -1.56918 11.6488
RightShoulder  0.819179 0.382937 14.2839
RightArm  -9.18718 -25.649 50.7693
RightForeArm  16.7443 11.4636 11.0412
RightHand  0.201642 -6.92252 -16.7132
LeftUpLeg  -17.7474 11.5987 30.7248
LeftLeg  36.8963 -5.53406 -4.07097
LeftFoot  -13.6521 -0.589795 -32.4164
LeftToes  2.2737e-010 4.38529e-011 2.18788e-011
709
root  4.32744 34.1862 0.193399 -78.9678 -84.4465 79.7559
RightUpLeg  -28.313 -12.1225 -31.4973
RightLeg  38.2489 0.264409 -0.0401986
RightFoot  -1.28824 -2.66148 29.5282
RightToes  -2.32832e-010 0 -3.6325e-017
Spine  23.0119 -0.760307 -11.1831
Spine1  -7.63927 -2.78982 0.777806
HEad  -25.8251 4.39348 0.467133
LeftShoulder1  1.09678 -1.54458 -14.8614
LeftArm  10.0786 -5.57675 -52.2971
LeftForeArm  179.381 -59.5739 -163.925
LeftHand  -0.837763 -0.0332457 18.033
RightShoulder  0.752833 0.0152002 14.6501
RightArm  -3.92176 -29.0446 52.0499
RightForeArm  13.1033 13.131 10.8059
RightHand  0.193727 -7.30924 -13.1299
LeftUpLeg  -17.1729 13.903 22.1977
LeftLeg  37.994 -5.60609 -4.29738
LeftFoot  -14.8329 -0.937868 -32.7872
LeftToes  2.2737e-010 4.38529e-011 2.18788e-011
710
root  4.28291 34.1712 0.61571 -100.433 -79.4329 101.632
RightUpLeg  -29.911 -10.4916 -37.313
RightLeg  37.5224 0.279388 -0.024965
RightFoot  -0.120424 -2.96259 29.5319
RightToes  -2.32832e-010 0 -3.6325e-017
Spine  21.739 -1.60557 -11.428
Spine1  -5.73078 -2.64702 -7.16991
HEad  -28.4 4.7138 1.83422
LeftShoulder1  0.99031 -0.856144 -15.9267
LeftArm  4.62941 -1.73371 -47.679
LeftForeArm  178.803 -56.945 -165.408
LeftHand  -0.741168 1.66986 22.9574
RightShoulder  0.771542 -0.10945 16.1024
RightArm  5.72967 -30.3023 53.3992
RightForeArm  8.93528 16.0918 9.59019
RightHand  0.124995 -7.08428 -10.1079
LeftUpLeg  -15.9566 15.2437 16.3453
LeftLeg  37.2567 -5.26157 -3.89781
LeftFoot  -15.3201 -1.1047 -33.496
LeftToes  2.2737e-010 4.38529e-011 2.18788e-011
711
root  4.23637 34.3863 0.675686 -109.857 -78.0736 110.68
RightUpLeg  -30.1685 -8.51447 -37.7978
RightLeg  36.0425 0.065492 -0.197349
RightFoot  1.02081 -3.17234 28.7819
RightToes  -2.32832e-010 0 -3.6325e-017
Spine  21.3126 -2.16398 -10.0698
Spine1  -4.27403 -2.25777 -11.6332
HEad  -30.8015 6.13245 2.61575
LeftShoulder1  0.954712 -0.573075 -16.6971
LeftArm  -0.428974 2.28751 -45.7176
LeftForeArm  178.149 -56.2192 -165.727
LeftHand  -0.581585 2.63142 24.1876
RightShoulder  0.865726 0.162011 17.0804
RightArm  15.7048 -30.9616 55.2618
RightForeArm  6.32561 19.3543 7.32899
RightHand  -0.0104868 -5.55396 -8.58245
LeftUpLeg  -13.4516 15.085 15.5523
LeftLeg  35.1262 -3.9471 -2.60567
LeftFoot  -14.9666 -1.0341 -34.4943
LeftToes  2.2737e-010 4.38529e-011 2.18788e-011
712
root  4.19387 34.7826 0.343906 -120.725 -80.073 121.269
RightUpLeg  -29.2454 -8.03262 -33.6804
RightLeg  34.2092 0.1991 -0.0974537
RightFoot  1.5074 -3.15784 27.627
RightToes  -2.32832e-010 0 -3.6325e-017
Spine  21.0303 -1.93564 -9.71203
Spine1  -3.33286 -2.14118 -9.42955
HEad  -31.8021 8.22152 2.91624
LeftShoulder1  0.905255 -0.345273 -16.8023
LeftArm  -3.79659 3.76424 -48.0557
LeftForeArm  178.868 -56.3466 -165.718
LeftHand  -0.539686 2.655 22.7175
RightShoulder  0.967259 0.565249 17.237
RightArm  23.1526 -31.4039 56.6595
RightForeArm  5.27642 21.9593 5.37418
RightHand  -0.094605 -4.29453 -8.13858
LeftUpLeg  -11.079 13.0866 18.5994
LeftLeg  31.951 -1.41228 -0.596668
LeftFoot  -13.3636 -0.560267 -35.1068
LeftToes  2.2737e-010 4.38529e-011 2.18788e-011
713
root  4.12181 35.2996 -0.280468 -146.28 -84.1729 147.651
RightUpLeg  -27.5333 -10.615 -26.6936
RightLeg  31.4066 0.938156 0.379037
RightFoot  1.60716 -3.04011 26.4443
RightToes  -2.32832e-010 0 -3.6325e-017
Spine  19.8739 -1.3656 -10.7793
Spine1  -2.65894 -2.72568 -1.29588
HEad  -30.7165 10.2563 2.98859
LeftShoulder1  0.821611 -0.131344 -15.8112
LeftArm  -4.7319 0.76175 -52.9226
LeftForeArm  -179.132 -55.4199 -166.339
LeftHand  -0.575115 2.16329 20.5761
RightShoulder  1.01949 0.809364 17.0807
RightArm  26.6558 -31.9854 56.8823
RightForeArm  6.09682 23.9855 4.74467
RightHand  -0.0960643 -4.07182 -6.8603
LeftUpLeg  -9.98381 10.1026 23.9161
LeftLeg  27.3512 1.43545 1.15058
LeftFoot  -10.3453 0.372281 -34.9273
LeftToes  2.2737e-010 4.38529e-011 2.18788e-011
